<svg width="32" height="33" viewBox="0 0 32 33" fill="none" xmlns="http://www.w3.org/2000/svg">
<g id="access_time" clip-path="url(#clip0_44_1925)">
<path id="Vector" d="M15.987 3.16663C8.62699 3.16663 2.66699 9.13996 2.66699 16.5C2.66699 23.86 8.62699 29.8333 15.987 29.8333C23.3603 29.8333 29.3337 23.86 29.3337 16.5C29.3337 9.13996 23.3603 3.16663 15.987 3.16663ZM16.0003 27.1666C10.107 27.1666 5.33366 22.3933 5.33366 16.5C5.33366 10.6066 10.107 5.83329 16.0003 5.83329C21.8937 5.83329 26.667 10.6066 26.667 16.5C26.667 22.3933 21.8937 27.1666 16.0003 27.1666ZM16.667 9.83329H14.667V17.8333L21.667 22.0333L22.667 20.3933L16.667 16.8333V9.83329Z" fill="#F4F3F4"/>
</g>
<defs>
<clipPath id="clip0_44_1925">
<rect width="32" height="32" fill="white" transform="translate(0 0.5)"/>
</clipPath>
</defs>
</svg>
