<svg width="21" height="20" viewBox="0 0 21 20" fill="none" xmlns="http://www.w3.org/2000/svg">
<g id="shopping_cart" clip-path="url(#clip0_44_1849)">
<path id="Vector" d="M13.458 10.8334C14.083 10.8334 14.633 10.4917 14.9163 9.97502L17.8997 4.56669C18.208 4.01669 17.808 3.33335 17.1747 3.33335H4.84134L4.05801 1.66669H1.33301V3.33335H2.99967L5.99967 9.65835L4.87467 11.6917C4.26634 12.8084 5.06634 14.1667 6.33301 14.1667H16.333V12.5H6.33301L7.24967 10.8334H13.458ZM5.63301 5.00002H15.758L13.458 9.16669H7.60801L5.63301 5.00002ZM6.33301 15C5.41634 15 4.67467 15.75 4.67467 16.6667C4.67467 17.5834 5.41634 18.3334 6.33301 18.3334C7.24967 18.3334 7.99967 17.5834 7.99967 16.6667C7.99967 15.75 7.24967 15 6.33301 15ZM14.6663 15C13.7497 15 13.008 15.75 13.008 16.6667C13.008 17.5834 13.7497 18.3334 14.6663 18.3334C15.583 18.3334 16.333 17.5834 16.333 16.6667C16.333 15.75 15.583 15 14.6663 15Z" fill="#1C1427"/>
</g>
<defs>
<clipPath id="clip0_44_1849">
<rect width="20" height="20" fill="white" transform="translate(0.5)"/>
</clipPath>
</defs>
</svg>
