<svg width="35" height="35" viewBox="0 0 35 35" fill="none" xmlns="http://www.w3.org/2000/svg">
<g id="delivery_dining" clip-path="url(#clip0_44_1902)">
<g id="Group">
<g id="Group_2">
<path id="Vector" d="M27.7087 10.2083C27.7087 8.60413 26.3962 7.29163 24.792 7.29163H20.417V10.2083H24.792V14.0729L19.717 20.4166H14.5837V13.125H8.75033C5.52741 13.125 2.91699 15.7354 2.91699 18.9583V23.3333H5.83366C5.83366 25.7541 7.78783 27.7083 10.2087 27.7083C12.6295 27.7083 14.5837 25.7541 14.5837 23.3333H21.117L27.7087 15.0937V10.2083ZM10.2087 24.7916C9.40658 24.7916 8.75033 24.1354 8.75033 23.3333H11.667C11.667 24.1354 11.0107 24.7916 10.2087 24.7916ZM11.667 20.4166H5.83366V18.9583C5.83366 17.3541 7.14616 16.0416 8.75033 16.0416H11.667V20.4166Z" fill="white"/>
<path id="Vector_2" d="M7.79199 11.1667V9.25H14.0837V11.1667H7.79199Z" fill="#E8E7E9" stroke="#F4F3F4"/>
<path id="Vector_3" d="M23.834 23.3333C23.834 21.1886 25.5643 19.4583 27.709 19.4583C29.8537 19.4583 31.584 21.1886 31.584 23.3333C31.584 25.4779 29.8537 27.2083 27.709 27.2083C25.5643 27.2083 23.834 25.4779 23.834 23.3333ZM25.7507 23.3333C25.7507 24.4115 26.6308 25.2916 27.709 25.2916C28.7872 25.2916 29.6673 24.4115 29.6673 23.3333C29.6673 22.255 28.7872 21.3749 27.709 21.3749C26.6308 21.3749 25.7507 22.255 25.7507 23.3333Z" fill="#E8E7E9" stroke="#F4F3F4"/>
</g>
</g>
</g>
<defs>
<clipPath id="clip0_44_1902">
<rect width="35" height="35" fill="white"/>
</clipPath>
</defs>
</svg>
