<svg width="18" height="18" viewBox="0 0 18 18" fill="none" xmlns="http://www.w3.org/2000/svg">
<g id="Group">
<g id="Group_2">
<path id="Vector" d="M12.2267 10.3333C12.92 9.28 13.3333 8.02667 13.3333 6.66667C13.3333 2.98667 10.3467 0 6.66667 0C2.98667 0 0 2.98667 0 6.66667C0 10.3467 2.98667 13.3333 6.66667 13.3333C8.02667 13.3333 9.28 12.92 10.3467 12.2267L15.4533 17.3333L17.3333 15.4533L12.2267 10.3333ZM6.66667 10.6667C4.46667 10.6667 2.66667 8.86667 2.66667 6.66667C2.66667 4.46667 4.46667 2.66667 6.66667 2.66667C8.86667 2.66667 10.6667 4.46667 10.6667 6.66667C10.6667 8.86667 8.86667 10.6667 6.66667 10.6667Z" fill="white"/>
</g>
</g>
</svg>
