<svg width="19" height="19" viewBox="0 0 19 19" fill="none" xmlns="http://www.w3.org/2000/svg">
<g id="shopping_cart" clip-path="url(#clip0_24_1651)">
<path id="Vector" d="M12.1625 10.25C12.725 10.25 13.22 9.9425 13.475 9.4775L16.16 4.61C16.4375 4.115 16.0775 3.5 15.5075 3.5H4.4075L3.7025 2H1.25V3.5H2.75L5.45 9.1925L4.4375 11.0225C3.89 12.0275 4.61 13.25 5.75 13.25H14.75V11.75H5.75L6.575 10.25H12.1625ZM5.12 5H14.2325L12.1625 8.75H6.8975L5.12 5ZM5.75 14C4.925 14 4.2575 14.675 4.2575 15.5C4.2575 16.325 4.925 17 5.75 17C6.575 17 7.25 16.325 7.25 15.5C7.25 14.675 6.575 14 5.75 14ZM13.25 14C12.425 14 11.7575 14.675 11.7575 15.5C11.7575 16.325 12.425 17 13.25 17C14.075 17 14.75 16.325 14.75 15.5C14.75 14.675 14.075 14 13.25 14Z" fill="#FBA901"/>
</g>
<defs>
<clipPath id="clip0_24_1651">
<rect width="18" height="18" fill="white" transform="translate(0.5 0.5)"/>
</clipPath>
</defs>
</svg>
